<?xml version="1.0" standalone="no"?>
<!DOCTYPE svg PUBLIC "-//W3C//DTD SVG 20010904//EN"
 "http://www.w3.org/TR/2001/REC-SVG-20010904/DTD/svg10.dtd">
<svg version="1.0" xmlns="http://www.w3.org/2000/svg"
 width="1219.000000pt" height="1219.000000pt" viewBox="0 0 1219.000000 1219.000000"
 preserveAspectRatio="xMidYMid meet">
<metadata>
Created by potrace 1.11, written by Peter Selinger 2001-2013
</metadata>
<g transform="translate(0.000000,1219.000000) scale(0.100000,-0.100000)"
fill="#000000" stroke="none">
<path d="M5937 12184 c-1 -1 -67 -5 -147 -8 -80 -4 -161 -8 -180 -11 -19 -2
-69 -7 -110 -10 -101 -9 -165 -17 -250 -30 -14 -2 -61 -9 -105 -15 -78 -12
-94 -14 -145 -25 -14 -2 -36 -6 -50 -9 -43 -7 -183 -36 -220 -46 -19 -5 -46
-11 -60 -14 -88 -17 -518 -143 -590 -173 -8 -3 -19 -7 -25 -9 -24 -6 -228 -86
-325 -127 -517 -219 -1034 -528 -1451 -868 -37 -30 -78 -63 -92 -74 -170 -135
-587 -546 -702 -692 -11 -15 -29 -35 -40 -47 -19 -20 -149 -182 -190 -237 -11
-15 -45 -60 -76 -100 -128 -170 -295 -433 -441 -694 -94 -167 -236 -473 -321
-690 -43 -111 -127 -349 -132 -375 -1 -3 -14 -45 -29 -94 -26 -83 -99 -363
-110 -417 -2 -13 -16 -80 -29 -149 -14 -69 -28 -145 -32 -170 -3 -25 -8 -52
-10 -60 -3 -8 -7 -37 -10 -65 -3 -27 -8 -61 -10 -75 -7 -40 -13 -97 -30 -265
-2 -22 -7 -85 -10 -140 l-6 -100 1453 1 c799 1 1455 2 1458 3 3 0 5 13 6 29 2
79 45 317 84 466 98 375 265 732 490 1046 176 246 345 425 616 649 60 51 336
241 348 241 2 0 37 19 78 43 351 206 821 352 1263 394 158 14 654 6 685 -12 3
-1 30 -6 60 -9 62 -7 71 -9 210 -37 273 -55 694 -217 930 -359 185 -111 325
-211 475 -339 601 -514 992 -1237 1089 -2016 4 -27 9 -61 12 -75 l4 -25 1443
1 c793 1 1448 2 1455 3 9 1 11 17 7 64 -2 34 -7 98 -10 142 -3 44 -7 91 -10
105 -2 14 -6 57 -10 95 -3 39 -8 77 -10 85 -2 8 -6 38 -10 65 -3 28 -8 57 -10
65 -2 8 -6 38 -10 65 -3 28 -8 57 -10 65 -2 8 -6 27 -9 43 -21 119 -32 170
-62 297 -177 737 -473 1408 -892 2025 -67 98 -258 354 -310 416 -190 226 -320
367 -482 524 -176 170 -177 171 -295 270 -33 28 -62 53 -65 56 -9 11 -114 93
-215 169 -55 41 -102 77 -105 80 -13 13 -225 156 -335 226 -201 127 -560 319
-755 403 -30 12 -73 31 -96 41 -192 86 -607 229 -819 282 -22 5 -47 11 -55 14
-37 10 -179 43 -201 48 -13 2 -55 11 -94 19 -65 14 -101 21 -180 33 -16 3 -68
11 -115 19 -47 8 -112 17 -145 20 -33 4 -71 9 -85 11 -14 2 -56 6 -95 9 -38 3
-84 8 -102 10 -77 11 -637 27 -646 19z"/>
<path d="M5888 8415 c-2 -2 -32 -6 -68 -10 -36 -4 -72 -8 -80 -10 -8 -1 -35
-6 -60 -10 -25 -4 -72 -14 -105 -22 -33 -8 -71 -17 -84 -20 -38 -7 -253 -80
-286 -97 -16 -9 -34 -16 -38 -16 -21 0 -230 -111 -327 -173 -156 -101 -253
-180 -400 -327 -393 -395 -626 -904 -669 -1460 -8 -96 -6 -328 3 -410 37 -344
148 -679 319 -962 23 -39 47 -78 52 -87 19 -31 89 -126 146 -196 227 -280 552
-524 890 -668 181 -77 420 -144 589 -163 19 -2 64 -8 100 -12 85 -9 365 -9
460 1 1017 105 1848 861 2049 1862 11 55 22 125 26 155 3 30 8 78 11 105 12
109 6 400 -10 495 -3 14 -7 43 -11 65 -15 104 -69 328 -94 390 -5 11 -23 58
-41 105 -193 494 -576 930 -1044 1185 -216 117 -494 215 -711 250 -22 4 -51 9
-65 11 -94 16 -189 22 -357 22 -105 0 -193 -1 -195 -3z"/>
<path d="M15 5691 c5 -95 12 -173 20 -241 2 -19 7 -60 10 -90 3 -30 8 -66 10
-80 2 -14 7 -45 10 -70 6 -42 9 -66 20 -132 3 -16 7 -43 10 -60 14 -83 62
-299 101 -453 128 -509 342 -1031 617 -1510 58 -102 219 -358 234 -373 7 -8
18 -23 25 -35 25 -47 297 -408 337 -448 9 -8 27 -30 41 -48 14 -17 41 -49 60
-70 19 -20 52 -57 73 -82 106 -122 376 -385 543 -529 200 -174 687 -530 723
-530 5 0 11 -3 13 -8 2 -4 48 -34 103 -67 312 -185 593 -323 916 -450 125 -49
384 -140 429 -150 14 -3 113 -32 185 -54 76 -23 444 -107 510 -116 11 -1 63
-10 115 -18 52 -9 120 -19 150 -23 30 -3 64 -8 75 -9 11 -2 49 -6 85 -10 36
-4 72 -9 81 -10 137 -27 985 -26 1153 0 12 2 53 6 91 10 59 5 146 17 308 41
15 2 40 6 57 8 16 3 37 7 47 10 10 3 38 8 63 11 25 4 113 22 195 41 83 19 159
37 171 39 131 30 527 157 709 228 284 112 626 277 844 409 34 21 65 38 66 38
2 0 48 28 102 62 262 166 456 309 723 530 161 134 500 468 646 638 373 434
669 883 904 1374 63 131 178 394 184 421 2 6 8 21 13 35 63 153 204 612 237
770 3 14 15 68 26 120 11 52 22 103 24 115 2 11 9 47 15 80 6 33 13 71 16 84
2 12 7 43 9 67 3 24 8 54 10 66 3 13 8 46 11 73 6 51 13 117 20 170 6 46 18
214 19 270 l1 50 -1454 0 c-1285 0 -1454 -2 -1456 -15 -1 -8 -6 -44 -10 -80
-10 -85 -32 -216 -49 -285 -2 -11 -9 -42 -16 -70 -43 -192 -141 -454 -254
-680 -183 -363 -403 -648 -731 -950 -22 -20 -87 -73 -145 -118 -354 -276 -730
-464 -1154 -577 -98 -26 -137 -35 -246 -55 -14 -3 -34 -7 -45 -9 -11 -2 -45
-7 -75 -11 -30 -3 -66 -8 -80 -10 -177 -28 -650 -22 -808 9 -15 3 -45 8 -67
11 -34 5 -236 47 -285 59 -273 70 -580 197 -820 341 -47 28 -96 58 -109 66
-14 7 -30 17 -35 22 -6 4 -58 42 -116 84 -137 100 -256 201 -373 318 -87 86
-242 260 -277 311 -8 12 -42 59 -75 105 -175 242 -325 536 -420 824 -63 190
-71 221 -119 455 -2 8 -9 56 -15 105 -7 50 -14 104 -17 121 l-4 31 -1455 0
-1456 0 6 -96z"/>
</g>
</svg>
